<svg xmlns="http://www.w3.org/2000/svg" width="1200" height="800" viewBox="0 0 1200 800">
  <rect width="1200" height="800" fill="#1a1f2e" rx="12"/>
  <rect x="40" y="40" width="1120" height="40" fill="#131720" rx="8"/>
  <circle cx="70" cy="60" r="8" fill="#f85149"/>
  <circle cx="95" cy="60" r="8" fill="#d29922"/>
  <circle cx="120" cy="60" r="8" fill="#3fb950"/>
  <text x="600" y="65" fill="#8b949e" text-anchor="middle" font-family="system-ui" font-size="14">app.example.com</text>
  <rect x="40" y="100" width="260" height="660" fill="#131720" rx="8"/>
  <rect x="60" y="130" width="220" height="32" fill="#1a1f2e" rx="4"/>
  <rect x="60" y="175" width="180" height="24" fill="#1a1f2e" rx="4"/>
  <rect x="60" y="210" width="200" height="24" fill="#1a1f2e" rx="4"/>
  <rect x="60" y="245" width="160" height="24" fill="#1a1f2e" rx="4"/>
  <rect x="320" y="100" width="840" height="660" fill="#0b0e14" rx="8"/>
  <text x="740" y="300" fill="#58a6ff" text-anchor="middle" font-family="system-ui" font-size="48" font-weight="700">Dashboard</text>
  <text x="740" y="350" fill="#8b949e" text-anchor="middle" font-family="system-ui" font-size="18">Sample application screenshot</text>
  <rect x="380" y="400" width="200" height="120" fill="#131720" rx="8"/>
  <rect x="600" y="400" width="200" height="120" fill="#131720" rx="8"/>
  <rect x="820" y="400" width="200" height="120" fill="#131720" rx="8"/>
  <rect x="380" y="540" width="640" height="180" fill="#131720" rx="8"/>
</svg>
